<svg width="32" height="32" viewBox="0 0 32 32" fill="none" xmlns="http://www.w3.org/2000/svg">
  <defs>
    <linearGradient id="gradient" x1="0%" y1="0%" x2="100%" y2="100%">
      <stop offset="0%" style="stop-color:#3B82F6;stop-opacity:1" />
      <stop offset="100%" style="stop-color:#8B5CF6;stop-opacity:1" />
    </linearGradient>
  </defs>
  <rect width="32" height="32" rx="8" fill="url(#gradient)"/>
  <path d="M16 8L17.5 12.5L22 14L17.5 15.5L16 20L14.5 15.5L10 14L14.5 12.5L16 8Z" fill="white"/>
  <path d="M24 18L24.5 19.5L26 20L24.5 20.5L24 22L23.5 20.5L22 20L23.5 19.5L24 18Z" fill="white" opacity="0.8"/>
  <path d="M8 18L8.5 19.5L10 20L8.5 20.5L8 22L7.5 20.5L6 20L7.5 19.5L8 18Z" fill="white" opacity="0.8"/>
</svg>
